<svg width="48" height="48" viewBox="0 0 48 48" fill="none" xmlns="http://www.w3.org/2000/svg">
<path d="M36.1275 10.2075L37.74 7.68C30.4575 3 18.54 3 11.175 7.68L12.75 10.215C19.2525 6.1125 29.7225 6.1125 36.1275 10.2075Z" fill="#0055DC"/>
<path d="M24.39 8.67749C20.6945 8.70932 17.061 9.63112 13.7972 11.3648C10.5334 13.0986 7.73535 15.5932 5.64001 18.6375L8.16751 20.25C10.0057 17.6449 12.4331 15.5106 15.2521 14.021C18.0711 12.5313 21.202 11.7284 24.39 11.6775C33.39 11.6775 39.15 17.2725 40.95 20.2275L43.5 18.675C41.415 15.2175 34.7175 8.67749 24.39 8.67749Z" fill="#0055DC"/>
<path d="M24.3975 13.3125C18.465 13.3125 13.47 15.885 10.3425 20.5575C8.68073 23.1231 7.66712 26.054 7.38885 29.098C7.11057 32.1421 7.57596 35.2081 8.74498 38.0325L11.52 36.8925C10.5343 34.5238 10.1388 31.9511 10.3675 29.3957C10.5961 26.8403 11.442 24.3786 12.8325 22.2225C14.1043 20.341 15.8319 18.8122 17.8542 17.7788C19.8765 16.7453 22.1276 16.2409 24.3975 16.3125C34.83 16.3125 37.6425 24.87 37.845 28.17C38.0775 32.04 35.865 32.4975 35.445 32.5425L35.205 32.5875C34.0977 32.8302 32.9397 32.651 31.9575 32.085C31.11 31.4925 30.585 30.405 30.405 28.86C29.9175 24.6225 26.655 22.86 23.88 23.025C20.8275 23.205 17.5425 25.6725 17.5425 30.6825C17.5425 37.905 24.1725 43.7175 30.2925 44.9325L30.8925 41.9925C26.565 41.145 20.5425 36.75 20.5425 30.6825C20.5425 27.6 22.305 26.1225 24.0525 26.025C25.425 25.9425 27.1425 26.73 27.4275 29.205C27.7125 31.68 28.6725 33.465 30.2775 34.5675C31.9274 35.5879 33.9086 35.9293 35.805 35.52C37.755 35.3025 41.175 33.48 40.8375 28.02C40.59 23.9025 37.1475 13.3125 24.3975 13.3125Z" fill="#0055DC"/>
<path d="M16.035 27.12C17.25 23.25 20.0775 20.9475 23.6475 20.9475C32.04 20.9475 32.6925 28.1775 32.6925 30.39H35.6925C35.6925 24.6525 32.5425 17.9475 23.6475 17.9475C18.765 17.9475 14.7525 21.1275 13.1475 26.1975C12.1789 29.4217 12.2567 32.87 13.3697 36.0472C14.4827 39.2245 16.5736 41.9675 19.3425 43.8825L21.03 41.4C18.7999 39.8489 17.1164 37.6333 16.2195 35.0691C15.3226 32.5049 15.258 29.723 16.035 27.12Z" fill="#0055DC"/>
<path d="M27.9375 35.34C27.1164 34.5273 26.4752 33.5513 26.0553 32.4751C25.6354 31.3989 25.4462 30.2465 25.5 29.0925H22.5C22.4517 30.6503 22.7259 32.2012 23.3054 33.648C23.8849 35.0948 24.7572 36.4063 25.8675 37.5C28.4996 39.8336 31.9212 41.0778 35.4375 40.98C35.7075 40.98 35.985 40.98 36.255 40.98L36.1125 37.98C32.8425 38.13 29.8575 37.17 27.9375 35.34Z" fill="#0055DC"/>
</svg>
